<?xml version="1.0" standalone="no"?><!DOCTYPE svg PUBLIC "-//W3C//DTD SVG 1.1//EN" "http://www.w3.org/Graphics/SVG/1.1/DTD/svg11.dtd"><svg t="1632924249504" class="icon" viewBox="0 0 1024 1024" version="1.1" xmlns="http://www.w3.org/2000/svg" p-id="7219" xmlns:xlink="http://www.w3.org/1999/xlink" width="200" height="200"><defs><style type="text/css">@font-face { font-weight: 400; font-style: normal; font-family: Circular-Loom; src: url("https://cdn.loom.com/assets/fonts/circular/CircularXXWeb-Book-cd7d2bcec649b1243839a15d5eb8f0a3.woff2") format("woff2"); }
@font-face { font-weight: 500; font-style: normal; font-family: Circular-Loom; src: url("https://cdn.loom.com/assets/fonts/circular/CircularXXWeb-Medium-d74eac43c78bd5852478998ce63dceb3.woff2") format("woff2"); }
@font-face { font-weight: 700; font-style: normal; font-family: Circular-Loom; src: url("https://cdn.loom.com/assets/fonts/circular/CircularXXWeb-Bold-83b8ceaf77f49c7cffa44107561909e4.woff2") format("woff2"); }
@font-face { font-weight: 900; font-style: normal; font-family: Circular-Loom; src: url("https://cdn.loom.com/assets/fonts/circular/CircularXXWeb-Black-bf067ecb8aa777ceb6df7d72226febca.woff2") format("woff2"); }
</style></defs><path d="M945.230769 551.384615h78.769231v78.769231h-78.769231zM945.230769 472.615385h78.769231v78.76923h-78.769231zM945.230769 393.846154h78.769231v78.769231h-78.769231zM945.230769 315.076923h78.769231v78.769231h-78.769231zM945.230769 236.307692h78.769231v78.769231h-78.769231zM866.461538 551.384615h78.769231v78.769231h-78.769231zM866.461538 236.307692h78.769231v78.769231h-78.769231zM787.692308 551.384615h78.76923v78.769231h-78.76923zM787.692308 236.307692h78.76923v78.769231h-78.76923zM708.923077 708.923077h78.769231v78.769231h-78.769231zM708.923077 630.153846h78.769231v78.769231h-78.769231zM708.923077 551.384615h78.769231v78.769231h-78.769231zM708.923077 472.615385h78.769231v78.76923h-78.769231zM708.923077 393.846154h78.769231v78.769231h-78.769231zM708.923077 315.076923h78.769231v78.769231h-78.769231zM708.923077 236.307692h78.769231v78.769231h-78.769231zM708.923077 157.538462h78.769231v78.76923h-78.769231zM630.153846 787.692308h78.769231v78.76923h-78.769231z" fill="#1E2028" p-id="7220"></path><path d="M630.153846 708.923077h78.769231v78.769231h-78.769231zM630.153846 630.153846h78.769231v78.769231h-78.769231zM630.153846 551.384615h78.769231v78.769231h-78.769231zM630.153846 472.615385h78.769231v78.76923h-78.769231zM630.153846 393.846154h78.769231v78.769231h-78.769231z" fill="#FF9343" p-id="7221"></path><path d="M630.153846 315.076923h78.769231v78.769231h-78.769231z" fill="#FFDD4D" p-id="7222"></path><path d="M630.153846 236.307692h78.769231v78.769231h-78.769231zM630.153846 157.538462h78.769231v78.76923h-78.769231z" fill="#D6D6D6" p-id="7223"></path><path d="M630.153846 78.769231h78.769231v78.769231h-78.769231zM551.384615 866.461538h78.769231v78.769231h-78.769231z" fill="#1E2028" p-id="7224"></path><path d="M551.384615 787.692308h78.769231v78.76923h-78.769231z" fill="#FF9343" p-id="7225"></path><path d="M551.384615 708.923077h78.769231v78.769231h-78.769231zM551.384615 630.153846h78.769231v78.769231h-78.769231zM551.384615 551.384615h78.769231v78.769231h-78.769231zM551.384615 472.615385h78.769231v78.76923h-78.769231zM551.384615 393.846154h78.769231v78.769231h-78.769231zM551.384615 315.076923h78.769231v78.769231h-78.769231z" fill="#FFDD4D" p-id="7226"></path><path d="M551.384615 236.307692h78.769231v78.769231h-78.769231zM551.384615 157.538462h78.769231v78.76923h-78.769231z" fill="#FFFFFF" p-id="7227"></path><path d="M551.384615 78.769231h78.769231v78.769231h-78.769231zM472.615385 866.461538h78.76923v78.769231h-78.76923z" fill="#1E2028" p-id="7228"></path><path d="M472.615385 787.692308h78.76923v78.76923h-78.76923z" fill="#FF9343" p-id="7229"></path><path d="M472.615385 708.923077h78.76923v78.769231h-78.76923zM472.615385 630.153846h78.76923v78.769231h-78.76923zM472.615385 551.384615h78.76923v78.769231h-78.76923zM472.615385 472.615385h78.76923v78.76923h-78.76923zM472.615385 393.846154h78.76923v78.769231h-78.76923zM472.615385 315.076923h78.76923v78.769231h-78.76923z" fill="#FFDD4D" p-id="7230"></path><path d="M472.615385 236.307692h78.76923v78.769231h-78.76923zM472.615385 157.538462h78.76923v78.76923h-78.76923z" fill="#FFFFFF" p-id="7231"></path><path d="M472.615385 78.769231h78.76923v78.769231h-78.76923zM393.846154 866.461538h78.769231v78.769231h-78.769231z" fill="#1E2028" p-id="7232"></path><path d="M393.846154 787.692308h78.769231v78.76923h-78.769231z" fill="#FF9343" p-id="7233"></path><path d="M393.846154 708.923077h78.769231v78.769231h-78.769231zM393.846154 630.153846h78.769231v78.769231h-78.769231zM393.846154 551.384615h78.769231v78.769231h-78.769231zM393.846154 472.615385h78.769231v78.76923h-78.769231zM393.846154 393.846154h78.769231v78.769231h-78.769231zM393.846154 315.076923h78.769231v78.769231h-78.769231z" fill="#FFDD4D" p-id="7234"></path><path d="M393.846154 236.307692h78.769231v78.769231h-78.769231zM393.846154 157.538462h78.769231v78.76923h-78.769231z" fill="#FFFFFF" p-id="7235"></path><path d="M393.846154 78.769231h78.769231v78.769231h-78.769231zM315.076923 866.461538h78.769231v78.769231h-78.769231z" fill="#1E2028" p-id="7236"></path><path d="M315.076923 787.692308h78.769231v78.76923h-78.769231z" fill="#FF9343" p-id="7237"></path><path d="M315.076923 708.923077h78.769231v78.769231h-78.769231zM315.076923 630.153846h78.769231v78.769231h-78.769231zM315.076923 551.384615h78.769231v78.769231h-78.769231zM315.076923 472.615385h78.769231v78.76923h-78.769231zM315.076923 393.846154h78.769231v78.769231h-78.769231zM315.076923 315.076923h78.769231v78.769231h-78.769231z" fill="#FFDD4D" p-id="7238"></path><path d="M315.076923 236.307692h78.769231v78.769231h-78.769231zM315.076923 157.538462h78.769231v78.76923h-78.769231z" fill="#FFFFFF" p-id="7239"></path><path d="M315.076923 78.769231h78.769231v78.769231h-78.769231zM236.307692 866.461538h78.769231v78.769231h-78.769231z" fill="#1E2028" p-id="7240"></path><path d="M236.307692 787.692308h78.769231v78.76923h-78.769231z" fill="#FFF1B6" p-id="7241"></path><path d="M236.307692 708.923077h78.769231v78.769231h-78.769231zM236.307692 630.153846h78.769231v78.769231h-78.769231zM236.307692 551.384615h78.769231v78.769231h-78.769231z" fill="#FFDD4D" p-id="7242"></path><path d="M236.307692 472.615385h78.769231v78.76923h-78.769231zM236.307692 393.846154h78.769231v78.769231h-78.769231z" fill="#FFFFFF" p-id="7243"></path><path d="M236.307692 315.076923h78.769231v78.769231h-78.769231z" fill="#FFDD4D" p-id="7244"></path><path d="M236.307692 236.307692h78.769231v78.769231h-78.769231zM236.307692 157.538462h78.769231v78.76923h-78.769231z" fill="#FFFFFF" p-id="7245"></path><path d="M236.307692 78.769231h78.769231v78.769231h-78.769231zM157.538462 787.692308h78.76923v78.76923H157.538462z" fill="#1E2028" p-id="7246"></path><path d="M157.538462 708.923077h78.76923v78.769231H157.538462zM157.538462 630.153846h78.76923v78.769231H157.538462zM157.538462 551.384615h78.76923v78.769231H157.538462zM157.538462 472.615385h78.76923v78.76923H157.538462zM157.538462 393.846154h78.76923v78.769231H157.538462zM157.538462 315.076923h78.76923v78.769231H157.538462z" fill="#FFF1B6" p-id="7247"></path><path d="M157.538462 236.307692h78.76923v78.769231H157.538462zM157.538462 157.538462h78.76923v78.76923H157.538462z" fill="#FFFFFF" p-id="7248"></path><path d="M157.538462 78.769231h78.76923v78.769231H157.538462zM78.769231 708.923077h78.769231v78.769231H78.769231zM78.769231 630.153846h78.769231v78.769231H78.769231zM78.769231 551.384615h78.769231v78.769231H78.769231zM78.769231 472.615385h78.769231v78.76923H78.769231zM78.769231 393.846154h78.769231v78.769231H78.769231zM78.769231 315.076923h78.769231v78.769231H78.769231zM78.769231 236.307692h78.769231v78.769231H78.769231zM78.769231 157.538462h78.769231v78.76923H78.769231z" fill="#1E2028" p-id="7249"></path></svg>