<?xml version="1.0" standalone="no"?><!DOCTYPE svg PUBLIC "-//W3C//DTD SVG 1.1//EN" "http://www.w3.org/Graphics/SVG/1.1/DTD/svg11.dtd"><svg t="1636686497064" class="icon" viewBox="0 0 1024 1024" version="1.1" xmlns="http://www.w3.org/2000/svg" p-id="1194" xmlns:xlink="http://www.w3.org/1999/xlink" width="24" height="200"><defs><style type="text/css">@font-face { font-weight: 400; font-style: normal; font-family: Circular-Loom; src: url("https://cdn.loom.com/assets/fonts/circular/CircularXXWeb-Book-cd7d2bcec649b1243839a15d5eb8f0a3.woff2") format("woff2"); }
@font-face { font-weight: 500; font-style: normal; font-family: Circular-Loom; src: url("https://cdn.loom.com/assets/fonts/circular/CircularXXWeb-Medium-d74eac43c78bd5852478998ce63dceb3.woff2") format("woff2"); }
@font-face { font-weight: 700; font-style: normal; font-family: Circular-Loom; src: url("https://cdn.loom.com/assets/fonts/circular/CircularXXWeb-Bold-83b8ceaf77f49c7cffa44107561909e4.woff2") format("woff2"); }
@font-face { font-weight: 900; font-style: normal; font-family: Circular-Loom; src: url("https://cdn.loom.com/assets/fonts/circular/CircularXXWeb-Black-bf067ecb8aa777ceb6df7d72226febca.woff2") format("woff2"); }
</style></defs><path d="M233.99936 553.14944c-24.27392 60.45696-28.288 118.09792-8.73984 128.81408 13.52704 7.43424 34.58048-9.5744 54.4-40.50944 7.86432 33.88416 27.24864 64.2816 54.96832 88.85248-29.02528 11.31008-48.04096 29.78816-48.04096 50.68288 0 34.41152 51.3536 62.19776 114.69312 62.19776 57.14432 0 104.48384-22.56384 113.21856-52.29056h13.59872c8.89856 29.72672 56.13568 52.29056 113.35168 52.29056 63.4112 0 114.69824-27.79136 114.69824-62.19776 0-20.89472-18.97984-39.23456-48.0768-50.68288 27.6224-24.576 47.13472-54.96832 54.93248-88.85248 19.82464 30.93504 40.7808 47.94368 54.36928 40.50944 19.65056-10.71616 15.73888-68.36224-8.77056-128.81408-19.14368-47.34464-45.09696-82.29376-64.88064-90.12736 0.27136-2.88256 0.50688-6.06208 0.50688-9.10336 0-18.35008-4.8896-35.28704-13.22496-49.08032 0.16896-1.1008 0.16896-2.14016 0.16896-3.24608a53.1456 53.1456 0 0 0-5.19168-23.13728c-4.98688-123.23328-81.21344-221.21984-204.65152-221.21984-123.39712 0-199.72608 97.98656-204.71296 221.21984a55.07584 55.07584 0 0 0-5.18656 23.23456c0 1.10592 0 2.14016 0.13312 3.2512-8.1664 13.68576-13.06112 30.62784-13.06112 49.03936 0 3.08224 0.16896 6.15936 0.37376 9.17504-19.712 7.77216-45.75744 42.6496-64.87552 89.99424z" p-id="1195"></path><path d="M517.11488 41.06752c-259.98848 0-471.49056 215.14752-471.49056 479.61088 0 264.448 211.54304 479.6416 471.49056 479.6416 259.95264 0 471.49568-215.18848 471.49568-479.6416 0-264.45824-211.54304-479.61088-471.49568-479.61088z m0 908.672c-232.61184 0-421.8112-192.47104-421.8112-429.10208 0-236.59008 189.19936-429.056 421.8112-429.056 232.576 0 421.77536 192.46592 421.77536 429.056 0.03072 236.63104-189.1584 429.10208-421.77536 429.10208z" p-id="1196"></path></svg>